<?xml version="1.0" encoding="UTF-8"?>
<!DOCTYPE score-partwise PUBLIC "-//Recordare//DTD MusicXML 4.0 Partwise//EN" "http://www.musicxml.org/dtds/partwise.dtd">
<score-partwise version="4.0">
  <work>
    <work-title>Round Midnight</work-title>
  </work>
  <identification>
    <creator type="composer">T. Monk</creator>
  </identification>
  <part-list>
    <score-part id="P1"><part-name>Lead</part-name></score-part>
  </part-list>
  <part id="P1">
    <measure number="1">
      <attributes>
        <divisions>2</divisions>
        <key><fifths>-5</fifths><mode>minor</mode></key>
        <time><beats>4</beats><beat-type>4</beat-type></time>
        <clef><sign>G</sign><line>2</line></clef>
      </attributes>
      <harmony><root><root-step>B</root-step><root-alter>-1</root-alter></root><kind text="m">minor</kind></harmony>
      <note><pitch><step>B</step><alter>-1</alter><octave>3</octave></pitch><duration>2</duration><type>quarter</type></note>
      <note><pitch><step>D</step><alter>-1</alter><octave>4</octave></pitch><duration>2</duration><type>quarter</type></note>
      <note><pitch><step>F</step><octave>4</octave></pitch><duration>2</duration><type>quarter</type></note>
      <note><pitch><step>B</step><alter>-1</alter><octave>4</octave></pitch><duration>2</duration><type>quarter</type></note>
    </measure>
    <measure number="2">
      <harmony><root><root-step>E</root-step><root-alter>-1</root-alter></root><kind text="m7">minor-seventh</kind></harmony>
      <note><pitch><step>E</step><alter>-1</alter><octave>4</octave></pitch><duration>2</duration><type>quarter</type></note>
      <note><pitch><step>G</step><alter>-1</alter><octave>4</octave></pitch><duration>2</duration><type>quarter</type></note>
      <note><pitch><step>B</step><alter>-1</alter><octave>4</octave></pitch><duration>2</duration><type>quarter</type></note>
      <note><pitch><step>D</step><alter>-1</alter><octave>5</octave></pitch><duration>2</duration><type>quarter</type></note>
    </measure>
    <measure number="3">
      <harmony><root><root-step>B</root-step><root-alter>-1</root-alter></root><kind text="m">minor</kind></harmony>
      <note><pitch><step>F</step><octave>4</octave></pitch><duration>2</duration><type>quarter</type></note>
      <note><pitch><step>D</step><alter>-1</alter><octave>4</octave></pitch><duration>2</duration><type>quarter</type></note>
      <note><pitch><step>B</step><alter>-1</alter><octave>3</octave></pitch><duration>2</duration><type>quarter</type></note>
      <note><pitch><step>F</step><octave>3</octave></pitch><duration>2</duration><type>quarter</type></note>
    </measure>
    <measure number="4">
      <harmony><root><root-step>F</root-step></root><kind text="7">dominant</kind></harmony>
      <note><pitch><step>F</step><octave>3</octave></pitch><duration>2</duration><type>quarter</type></note>
      <note><pitch><step>A</step><octave>3</octave></pitch><duration>2</duration><type>quarter</type></note>
      <note><pitch><step>C</step><octave>4</octave></pitch><duration>2</duration><type>quarter</type></note>
      <note><pitch><step>E</step><alter>-1</alter><octave>4</octave></pitch><duration>2</duration><type>quarter</type></note>
    </measure>
    <measure number="5">
      <harmony><root><root-step>B</root-step><root-alter>-1</root-alter></root><kind text="m">minor</kind></harmony>
      <note><pitch><step>B</step><alter>-1</alter><octave>4</octave></pitch><duration>2</duration><type>quarter</type></note>
      <note><pitch><step>F</step><octave>4</octave></pitch><duration>2</duration><type>quarter</type></note>
      <note><pitch><step>D</step><alter>-1</alter><octave>4</octave></pitch><duration>2</duration><type>quarter</type></note>
      <note><pitch><step>B</step><alter>-1</alter><octave>3</octave></pitch><duration>2</duration><type>quarter</type></note>
    </measure>
    <measure number="6">
      <harmony><root><root-step>E</root-step><root-alter>-1</root-alter></root><kind text="m7">minor-seventh</kind></harmony>
      <note><pitch><step>G</step><alter>-1</alter><octave>4</octave></pitch><duration>2</duration><type>quarter</type></note>
      <note><pitch><step>E</step><alter>-1</alter><octave>4</octave></pitch><duration>2</duration><type>quarter</type></note>
      <note><pitch><step>B</step><alter>-1</alter><octave>3</octave></pitch><duration>2</duration><type>quarter</type></note>
      <note><pitch><step>G</step><alter>-1</alter><octave>3</octave></pitch><duration>2</duration><type>quarter</type></note>
    </measure>
    <measure number="7">
      <harmony><root><root-step>B</root-step><root-alter>-1</root-alter></root><kind text="m">minor</kind></harmony>
      <note><pitch><step>B</step><alter>-1</alter><octave>3</octave></pitch><duration>4</duration><type>half</type></note>
      <note><pitch><step>D</step><alter>-1</alter><octave>4</octave></pitch><duration>4</duration><type>half</type></note>
      <harmony><root><root-step>F</root-step></root><kind text="7">dominant</kind></harmony>
      <note><pitch><step>F</step><octave>3</octave></pitch><duration>4</duration><type>half</type></note>
      <note><pitch><step>A</step><octave>3</octave></pitch><duration>4</duration><type>half</type></note>
    </measure>
    <measure number="8">
      <harmony><root><root-step>B</root-step><root-alter>-1</root-alter></root><kind text="m">minor</kind></harmony>
      <note><pitch><step>B</step><alter>-1</alter><octave>3</octave></pitch><duration>8</duration><type>whole</type></note>
      <barline location="right"><bar-style>light-heavy</bar-style></barline>
    </measure>
  </part>
</score-partwise>
